# xmcd
# 
# Track frame offsets:
#     150
#     7520
#     24046
#     41544
#     58549
#     67999
#     81439
#     96657
#     109439
#     126117
#     141771
#     157822
#     163531
#     180053
#     191817
#     206246
#     219640
#     238013
#     254136
# 
# Disc length: 3558
# 
# Revision: 8
# Processed by: cddbd v1.5.2PL0 Copyright (c) Steve Scherf et al.
# Submitted via: BonkEnc v1.0.6
# 
DISCID=040de413
DTITLE=Roméo and Juliette - Acte 1
DYEAR=2000
DGENRE=Comédie Musicale
TTITLE0=Ouverture
TTITLE1=Verone
TTITLE2=La haine
TTITLE3=Un jour
TTITLE4=La demande en mariage
TTITLE5=Tu dois te marier
TTITLE6=Les rois du monde
TTITLE7=La folie
TTITLE8=J'ai peur
TTITLE9=Le bal 1
TTITLE10=L'amour heureux
TTITLE11=Le bal 2
TTITLE12=C'est pas ma faute
TTITLE13=Le poête
TTITLE14=Le balcon
TTITLE15=Par amour
TTITLE16=Les beaux, les laids
TTITLE17=Et voilà qu'elle aime
TTITLE18=Aimer
EXTD=YEAR: 2000
EXTT0=
EXTT1=
EXTT2=
EXTT3=
EXTT4=
EXTT5=
EXTT6=
EXTT7=
EXTT8=
EXTT9=
EXTT10=
EXTT11=
EXTT12=
EXTT13=
EXTT14=
EXTT15=
EXTT16=
EXTT17=
EXTT18=
PLAYORDER=
